<svg width="28" height="28" viewBox="0 0 28 28" fill="none" xmlns="http://www.w3.org/2000/svg">
<path fill-rule="evenodd" clip-rule="evenodd" d="M18.8709 3.5C18.8709 3.08579 18.5351 2.75 18.1209 2.75C17.7067 2.75 17.3709 3.08579 17.3709 3.5V5.08333H9.53758V3.5C9.53758 3.08579 9.20179 2.75 8.78758 2.75C8.37336 2.75 8.03758 3.08579 8.03758 3.5V5.08333H6.45424C4.75137 5.08333 3.37091 6.46379 3.37091 8.16667V12.8333V22.1667C3.37091 23.8695 4.75137 25.25 6.45424 25.25H20.4542C22.1571 25.25 23.5376 23.8695 23.5376 22.1667V12.8333V8.16667C23.5376 6.46379 22.1571 5.08333 20.4542 5.08333H18.8709V3.5ZM22.0376 12.0833V8.16667C22.0376 7.29222 21.3287 6.58333 20.4542 6.58333H18.8709V8.16667C18.8709 8.58088 18.5351 8.91667 18.1209 8.91667C17.7067 8.91667 17.3709 8.58088 17.3709 8.16667V6.58333H9.53758V8.16667C9.53758 8.58088 9.20179 8.91667 8.78758 8.91667C8.37336 8.91667 8.03758 8.58088 8.03758 8.16667V6.58333H6.45424C5.57979 6.58333 4.87091 7.29222 4.87091 8.16667V12.0833H22.0376ZM4.87091 13.5833H22.0376V22.1667C22.0376 23.0411 21.3287 23.75 20.4542 23.75H6.45424C5.57979 23.75 4.87091 23.0411 4.87091 22.1667V13.5833Z" fill="#121212"/>
</svg>
