<svg width="20" height="20" viewBox="0 0 20 20" fill="none" xmlns="http://www.w3.org/2000/svg">
<mask id="path-1-inside-1_645_4367" fill="white">
<path d="M0 10.2039C0 7.91549 5.96046e-08 6.77128 0.5192 5.82274C1.0384 4.87421 1.98695 4.28551 3.88403 3.10813L5.88403 1.86687C7.88939 0.62229 8.8921 0 10 0C11.1079 0 12.1106 0.62229 14.116 1.86687L16.116 3.10812C18.0131 4.28551 18.9616 4.87421 19.4808 5.82274C20 6.77128 20 7.91549 20 10.2039V11.725C20 15.6258 20 17.5763 18.8284 18.7881C17.6569 20 15.7712 20 12 20H8C4.22876 20 2.34315 20 1.17157 18.7881C1.19209e-07 17.5763 0 15.6258 0 11.725V10.2039Z"/>
</mask>
<path d="M0 10.2039C0 7.91549 5.96046e-08 6.77128 0.5192 5.82274C1.0384 4.87421 1.98695 4.28551 3.88403 3.10813L5.88403 1.86687C7.88939 0.62229 8.8921 0 10 0C11.1079 0 12.1106 0.62229 14.116 1.86687L16.116 3.10812C18.0131 4.28551 18.9616 4.87421 19.4808 5.82274C20 6.77128 20 7.91549 20 10.2039V11.725C20 15.6258 20 17.5763 18.8284 18.7881C17.6569 20 15.7712 20 12 20H8C4.22876 20 2.34315 20 1.17157 18.7881C1.19209e-07 17.5763 0 15.6258 0 11.725V10.2039Z" fill="white"/>
<path d="M0.5192 5.82274L-28.7204 -10.1822L-28.7204 -10.1821L0.5192 5.82274ZM3.88403 3.10813L21.4615 31.4303L21.4616 31.4302L3.88403 3.10813ZM5.88403 1.86687L-11.6934 -26.4553L-11.6935 -26.4552L5.88403 1.86687ZM14.116 1.86687L31.6934 -26.4553L31.6932 -26.4554L14.116 1.86687ZM16.116 3.10812L33.6935 -25.214L33.6934 -25.214L16.116 3.10812ZM19.4808 5.82274L48.7204 -10.1821L48.7204 -10.1822L19.4808 5.82274ZM18.8284 18.7881L-5.13597 -4.38128L-5.13791 -4.37927L18.8284 18.7881ZM1.17157 18.7881L25.1371 -4.38009L25.1362 -4.38097L1.17157 18.7881ZM33.3333 10.2039C33.3333 9.90252 33.3334 9.7042 33.3341 9.53158C33.3344 9.45167 33.3348 9.39396 33.3352 9.35255C33.3356 9.3112 33.3359 9.29426 33.3359 9.29639C33.3358 9.29852 33.3353 9.32773 33.3337 9.37883C33.3322 9.42992 33.3294 9.511 33.3244 9.61689C33.3149 9.8207 33.295 10.1723 33.252 10.6293C33.0735 12.5293 32.4483 16.9141 29.7588 21.8276L-28.7204 -10.1821C-31.9291 -4.32008 -32.8139 1.11106 -33.1222 4.39239C-33.3672 6.99954 -33.3333 9.67696 -33.3333 10.2039H33.3333ZM29.7588 21.8277C27.0389 26.7966 23.6163 29.7409 21.952 31.0155C21.5625 31.3138 21.252 31.5333 21.0646 31.6626C20.8775 31.7919 20.7589 31.8686 20.7486 31.8753C20.7383 31.882 20.7798 31.855 20.9131 31.7715C21.0508 31.6852 21.2107 31.5859 21.4615 31.4303L-13.6935 -25.214C-14.0958 -24.9643 -16.4433 -23.551 -18.5822 -21.913C-21.3248 -19.8126 -25.4813 -16.0997 -28.7204 -10.1822L29.7588 21.8277ZM21.4616 31.4302L23.4616 30.189L-11.6935 -26.4552L-13.6935 -25.214L21.4616 31.4302ZM23.4615 30.189C23.7264 30.0246 23.8966 29.919 24.0442 29.8284C24.1872 29.7405 24.2344 29.7125 24.2259 29.7175C24.2176 29.7225 24.0919 29.7971 23.8843 29.9117C23.6768 30.0263 23.3232 30.2163 22.856 30.4435C20.9118 31.389 16.2972 33.3333 10 33.3333V-33.3333C2.59492 -33.3333 -3.07499 -31.0778 -6.29885 -29.5101C-8.8403 -28.2742 -11.2721 -26.7167 -11.6934 -26.4553L23.4615 30.189ZM10 33.3333C3.7028 33.3333 -0.911812 31.389 -2.85593 30.4436C-3.32319 30.2163 -3.67671 30.0263 -3.88422 29.9118C-4.09182 29.7972 -4.21743 29.7225 -4.22578 29.7176C-4.23421 29.7126 -4.18698 29.7406 -4.04394 29.8285C-3.89638 29.9192 -3.72612 30.0248 -3.46122 30.1892L31.6932 -26.4554C31.272 -26.7168 28.8402 -28.2743 26.2988 -29.5101C23.075 -31.0778 17.4051 -33.3333 10 -33.3333V33.3333ZM-3.46144 30.189L-1.46144 31.4303L33.6934 -25.214L31.6934 -26.4553L-3.46144 30.189ZM-1.46147 31.4303C-1.2107 31.5859 -1.05076 31.6852 -0.91308 31.7715C-0.779815 31.855 -0.738374 31.8819 -0.748662 31.8752C-0.759071 31.8685 -0.877665 31.7917 -1.06479 31.6625C-1.25217 31.5331 -1.56273 31.3136 -1.95224 31.0153C-3.61673 29.7406 -7.03907 26.7963 -9.75877 21.8277L48.7204 -10.1822C45.4815 -16.0994 41.3253 -19.8122 38.5825 -21.9128C36.4435 -23.5509 34.096 -24.9642 33.6935 -25.214L-1.46147 31.4303ZM-9.75884 21.8276C-12.4483 16.9141 -13.0735 12.5293 -13.252 10.6293C-13.295 10.1722 -13.3149 9.82069 -13.3244 9.61688C-13.3294 9.511 -13.3322 9.42991 -13.3338 9.37883C-13.3353 9.32773 -13.3358 9.29852 -13.3359 9.29639C-13.3359 9.29426 -13.3356 9.31119 -13.3352 9.35254C-13.3348 9.39395 -13.3344 9.45166 -13.3341 9.53158C-13.3334 9.7042 -13.3333 9.90252 -13.3333 10.2039H53.3333C53.3333 9.67697 53.3672 6.99955 53.1222 4.3924C52.8139 1.11108 51.9291 -4.32008 48.7204 -10.1821L-9.75884 21.8276ZM-13.3333 10.2039V11.725H53.3333V10.2039H-13.3333ZM-13.3333 11.725C-13.3333 12.82 -13.3354 13.2306 -13.3417 13.4909C-13.3485 13.7678 -13.3472 13.0879 -13.2017 11.9684C-12.8938 9.59967 -11.5735 2.27709 -5.13597 -4.38128L42.7928 41.9575C50.4019 34.0873 52.308 25.1836 52.9088 20.5615C53.3996 16.7858 53.3333 12.7636 53.3333 11.725H-13.3333ZM-5.13791 -4.37927C-2.1304 -7.4905 1.3169 -9.72386 4.74451 -11.1826C7.90063 -12.5258 10.5177 -12.9891 11.7975 -13.1671C13.0488 -13.3411 13.8412 -13.3466 13.6233 -13.3409C13.4223 -13.3357 13.071 -13.3333 12 -13.3333V53.3333C12.9118 53.3333 17.0627 53.409 20.9807 52.8641C25.9762 52.1693 35.0336 49.9842 42.7947 41.9555L-5.13791 -4.37927ZM12 -13.3333H8V53.3333H12V-13.3333ZM8 -13.3333C6.92902 -13.3333 6.57772 -13.3357 6.37665 -13.3409C6.15876 -13.3466 6.95122 -13.3411 8.20254 -13.1671C9.48238 -12.9891 12.0994 -12.5257 15.2554 -11.1826C18.6829 -9.72397 22.1299 -7.49082 25.1371 -4.38009L-22.794 41.9563C-15.0332 49.9841 -5.97661 52.1693 -0.980715 52.8641C2.93732 53.409 7.08823 53.3333 8 53.3333V-13.3333ZM25.1362 -4.38097C31.5736 2.27742 32.8939 9.59993 33.2017 11.9685C33.3472 13.088 33.3485 13.7678 33.3417 13.4909C33.3354 13.2306 33.3333 12.82 33.3333 11.725H-33.3333C-33.3333 12.7636 -33.3996 16.7858 -32.9088 20.5614C-32.3081 25.1833 -30.402 34.087 -22.7931 41.9572L25.1362 -4.38097ZM33.3333 11.725V10.2039H-33.3333V11.725H33.3333Z" fill="white" mask="url(#path-1-inside-1_645_4367)"/>
</svg>
